<svg width="783" height="311" viewBox="0 0 783 311" fill="none" xmlns="http://www.w3.org/2000/svg">
<path d="M751.842 262.444C754.251 260.254 756.66 259.159 759.069 259.159C761.696 259.159 763.777 260.692 765.31 263.758C767.061 266.605 767.937 270.108 767.937 274.269C767.937 283.466 764.653 290.801 758.083 296.276C746.696 305.692 733.777 310.4 719.324 310.4C698.521 310.4 683.303 301.75 673.668 284.451C664.033 266.933 659.215 244.159 659.215 216.13C659.215 189.415 662.609 158.977 669.398 124.817C676.405 90.6565 686.587 61.3136 699.945 36.7881C713.521 12.2627 729.616 0 748.229 0C758.74 0 766.952 4.92699 772.864 14.781C778.996 24.416 782.061 38.321 782.061 56.4961C782.061 82.5543 774.835 112.773 760.382 147.153C746.149 181.532 726.66 215.473 701.916 248.977C703.448 257.955 706.186 264.415 710.127 268.356C714.069 272.298 719.434 274.269 726.222 274.269C729.945 274.269 734.105 273.174 738.704 270.984C743.521 268.794 747.901 265.948 751.842 262.444ZM741.003 32.5181C735.967 32.5181 730.273 41.6057 723.923 59.7807C717.573 77.9558 711.989 100.51 707.171 127.445C702.354 154.379 699.726 180.218 699.288 204.962C714.835 179.342 727.207 153.722 736.405 128.102C745.602 102.262 750.2 78.7222 750.2 57.4815C750.2 40.8392 747.134 32.5181 741.003 32.5181Z" fill="white"/>
<path d="M674.268 235.51C677.115 235.51 679.305 236.824 680.837 239.451C682.589 242.079 683.465 245.692 683.465 250.291C683.465 259.05 681.385 265.838 677.224 270.656C667.808 282.261 657.516 291.787 646.348 299.232C635.4 306.677 622.918 310.4 608.903 310.4C589.633 310.4 575.29 301.641 565.874 284.123C556.677 266.605 552.079 243.94 552.079 216.13C552.079 189.415 555.473 158.977 562.261 124.817C569.269 90.6565 579.451 61.3136 592.809 36.7881C606.385 12.2627 622.48 0 641.093 0C651.604 0 659.816 4.92699 665.728 14.781C671.859 24.416 674.925 38.321 674.925 56.4961C674.925 82.5543 667.699 112.773 653.246 147.153C638.794 181.532 619.195 215.583 594.451 249.305C595.984 258.283 598.502 264.743 602.006 268.685C605.509 272.407 610.108 274.269 615.801 274.269C624.779 274.269 632.662 271.75 639.451 266.714C646.239 261.459 654.889 252.59 665.399 240.108C668.027 237.043 670.983 235.51 674.268 235.51ZM633.867 32.5181C628.83 32.5181 623.137 41.6057 616.787 59.7807C610.436 77.9558 604.852 100.51 600.035 127.445C595.217 154.379 592.59 180.218 592.152 204.962C607.699 179.342 620.071 153.722 629.268 128.102C638.465 102.262 643.064 78.7222 643.064 57.4815C643.064 40.8392 639.998 32.5181 633.867 32.5181Z" fill="white"/>
<path d="M435.892 310.4C422.315 310.4 411.476 305.473 403.374 295.619C395.271 285.765 391.22 272.845 391.22 256.86C391.22 239.342 395.271 222.809 403.374 207.262C411.476 191.495 422.206 178.904 435.563 169.488C449.14 159.853 463.483 155.036 478.592 155.036C483.41 155.036 486.585 156.021 488.118 157.992C489.869 159.744 491.293 163.028 492.388 167.846C496.986 166.97 501.804 166.532 506.84 166.532C517.57 166.532 522.935 170.364 522.935 178.028C522.935 182.627 521.293 193.576 518.008 210.875C512.972 236.057 510.453 253.575 510.453 263.429C510.453 266.714 511.22 269.342 512.753 271.313C514.504 273.283 516.694 274.269 519.322 274.269C523.482 274.269 528.519 271.641 534.431 266.386C540.344 260.911 548.336 252.152 558.409 240.108C561.037 237.043 563.993 235.51 567.278 235.51C570.125 235.51 572.314 236.824 573.847 239.451C575.599 242.079 576.475 245.692 576.475 250.291C576.475 259.05 574.395 265.838 570.234 270.656C561.256 281.823 551.73 291.239 541.658 298.904C531.585 306.568 521.84 310.4 512.424 310.4C505.198 310.4 498.519 307.991 492.388 303.174C486.475 298.137 481.986 291.349 478.921 282.809C467.534 301.203 453.191 310.4 435.892 310.4ZM447.716 277.225C452.534 277.225 457.132 274.378 461.512 268.685C465.891 262.991 469.067 255.437 471.037 246.021L483.191 185.583C473.994 185.802 465.454 189.306 457.57 196.094C449.906 202.663 443.775 211.422 439.176 222.371C434.578 233.32 432.279 244.926 432.279 257.189C432.279 263.977 433.592 269.013 436.22 272.298C439.067 275.583 442.899 277.225 447.716 277.225Z" fill="white"/>
<path d="M340.506 310.4C319.046 310.4 302.294 304.378 290.251 292.334C278.426 280.072 272.513 263.977 272.513 244.05C272.513 226.313 276.017 210.765 283.024 197.408C290.032 184.05 299.119 173.758 310.287 166.532C321.455 159.306 333.17 155.693 345.433 155.693C357.477 155.693 366.783 159.306 373.352 166.532C380.141 173.539 383.535 182.627 383.535 193.795C383.535 202.992 381.455 210.765 377.294 217.116C373.352 223.466 368.097 226.641 361.528 226.641C357.367 226.641 353.973 225.656 351.345 223.685C348.936 221.714 347.732 218.977 347.732 215.473C347.732 213.941 347.951 212.189 348.389 210.218C348.827 208.247 349.155 206.824 349.374 205.948C350.469 202.663 351.017 199.598 351.017 196.751C351.017 193.904 350.25 191.714 348.718 190.182C347.404 188.649 345.433 187.882 342.805 187.882C337.769 187.882 333.061 190.182 328.681 194.78C324.302 199.16 320.798 205.182 318.17 212.846C315.542 220.51 314.229 228.941 314.229 238.138C314.229 263.539 325.287 276.24 347.404 276.24C356.382 276.24 366.017 273.283 376.309 267.371C386.82 261.24 397.111 252.152 407.184 240.108C409.812 237.043 412.768 235.51 416.053 235.51C418.9 235.51 421.089 236.824 422.622 239.451C424.374 242.079 425.25 245.692 425.25 250.291C425.25 258.612 423.17 265.4 419.009 270.656C408.717 283.356 396.345 293.21 381.893 300.218C367.659 307.006 353.863 310.4 340.506 310.4Z" fill="white"/>
<path d="M295.316 235.51C298.163 235.51 300.353 236.824 301.886 239.451C303.637 242.079 304.513 245.692 304.513 250.291C304.513 259.05 302.433 265.838 298.273 270.656C290.17 280.51 278.674 289.597 263.784 297.918C249.112 306.239 233.346 310.4 216.485 310.4C193.492 310.4 175.645 304.159 162.945 291.677C150.244 279.196 143.894 262.116 143.894 240.437C143.894 225.327 147.069 211.313 153.419 198.393C159.77 185.255 168.529 174.853 179.696 167.189C191.083 159.525 203.893 155.693 218.127 155.693C230.828 155.693 241.01 159.525 248.674 167.189C256.338 174.634 260.17 184.817 260.17 197.736C260.17 212.846 254.696 225.875 243.747 236.824C233.017 247.554 214.733 256.094 188.893 262.444C194.368 272.517 204.769 277.553 220.098 277.553C229.952 277.553 241.119 274.159 253.601 267.371C266.302 260.364 277.251 251.276 286.448 240.108C289.075 237.043 292.032 235.51 295.316 235.51ZM212.543 187.882C204.441 187.882 197.543 192.59 191.85 202.006C186.375 211.422 183.638 222.809 183.638 236.167V236.824C196.558 233.758 206.74 229.16 214.185 223.028C221.631 216.897 225.353 209.78 225.353 201.678C225.353 197.517 224.149 194.233 221.74 191.824C219.55 189.196 216.485 187.882 212.543 187.882Z" fill="white"/>
<path d="M22.6641 310.4C14.343 310.4 8.43062 306.02 4.92698 297.261C1.64233 288.502 0 274.488 0 255.218C0 226.751 4.05108 199.707 12.1532 174.087C14.124 167.736 17.2992 163.138 21.6787 160.291C26.2772 157.226 32.6276 155.693 40.7297 155.693C45.1093 155.693 48.1749 156.24 49.9268 157.335C51.6786 158.43 52.5545 160.51 52.5545 163.576C52.5545 167.08 50.9122 174.963 47.6275 187.225C45.4377 195.985 43.6859 203.649 42.3721 210.218C41.0582 216.787 39.9633 224.889 39.0874 234.524C46.3136 215.692 54.4158 200.364 63.3939 188.539C72.3719 176.715 81.131 168.284 89.6711 163.247C98.4302 158.211 106.423 155.693 113.649 155.693C127.883 155.693 134.999 162.809 134.999 177.043C134.999 179.89 134.014 186.787 132.043 197.736C130.291 206.495 129.415 211.97 129.415 214.16C129.415 221.824 132.153 225.656 137.627 225.656C143.758 225.656 151.642 220.838 161.277 211.203C164.123 208.357 167.079 206.933 170.145 206.933C172.992 206.933 175.182 208.247 176.714 210.875C178.466 213.284 179.342 216.568 179.342 220.729C179.342 228.831 177.152 235.181 172.773 239.78C166.642 246.13 159.415 251.605 151.094 256.203C142.992 260.583 134.342 262.773 125.145 262.773C113.54 262.773 104.671 259.816 98.5397 253.904C92.6273 247.992 89.6711 239.999 89.6711 229.926C89.6711 226.641 89.9996 223.357 90.6565 220.072C91.0944 215.692 91.3134 212.736 91.3134 211.203C91.3134 207.7 90.109 205.948 87.7003 205.948C84.4156 205.948 80.0361 209.671 74.5617 217.116C69.3062 224.342 64.0508 233.977 58.7953 246.021C53.5399 258.064 49.2698 270.765 45.9852 284.123C43.5764 294.415 40.7297 301.422 37.4451 305.145C34.3794 308.648 29.4524 310.4 22.6641 310.4Z" fill="white"/>
</svg>
