<svg width="196" height="78" viewBox="0 0 196 78" fill="none" xmlns="http://www.w3.org/2000/svg">
<path d="M188.429 65.7531C189.032 65.2045 189.636 64.9302 190.239 64.9302C190.898 64.9302 191.419 65.3142 191.803 66.0823C192.242 66.7955 192.461 67.6733 192.461 68.7157C192.461 71.02 191.638 72.8579 189.993 74.2294C187.14 76.5885 183.903 77.7681 180.282 77.7681C175.07 77.7681 171.257 75.601 168.843 71.2668C166.429 66.8778 165.222 61.1721 165.222 54.1496C165.222 47.4564 166.072 39.8304 167.773 31.2718C169.529 22.7132 172.08 15.3616 175.426 9.21696C178.828 3.07232 182.86 0 187.524 0C190.157 0 192.214 1.23442 193.696 3.70324C195.232 6.11721 196 9.601 196 14.1546C196 20.6833 194.19 28.2544 190.569 36.8678C187.002 45.4813 182.12 53.985 175.92 62.3791C176.304 64.6284 176.99 66.2469 177.978 67.2344C178.965 68.2219 180.309 68.7157 182.01 68.7157C182.943 68.7157 183.985 68.4414 185.137 67.8928C186.344 67.3441 187.441 66.6309 188.429 65.7531ZM185.713 8.14713C184.451 8.14713 183.025 10.4239 181.434 14.9776C179.843 19.5312 178.444 25.182 177.237 31.9302C176.03 38.6783 175.372 45.1521 175.262 51.3516C179.157 44.9327 182.257 38.5137 184.561 32.0948C186.865 25.621 188.017 19.7232 188.017 14.4015C188.017 10.2319 187.249 8.14713 185.713 8.14713Z" fill="#E34D11"/>
<path d="M168.993 59.005C169.707 59.005 170.255 59.3342 170.639 59.9925C171.078 60.6509 171.298 61.5561 171.298 62.7082C171.298 64.9027 170.776 66.6035 169.734 67.8105C167.375 70.7182 164.796 73.1047 161.998 74.9701C159.255 76.8354 156.128 77.7681 152.617 77.7681C147.789 77.7681 144.195 75.5736 141.836 71.1845C139.532 66.7955 138.38 61.1172 138.38 54.1496C138.38 47.4564 139.23 39.8304 140.931 31.2718C142.687 22.7132 145.238 15.3616 148.584 9.21696C151.986 3.07232 156.018 0 160.682 0C163.315 0 165.372 1.23442 166.854 3.70324C168.39 6.11721 169.158 9.601 169.158 14.1546C169.158 20.6833 167.347 28.2544 163.726 36.8678C160.106 45.4813 155.195 54.0125 148.996 62.4613C149.38 64.7107 150.011 66.3292 150.889 67.3167C151.766 68.2494 152.919 68.7157 154.345 68.7157C156.594 68.7157 158.569 68.0848 160.27 66.8229C161.971 65.5062 164.138 63.2843 166.771 60.1571C167.43 59.389 168.17 59.005 168.993 59.005ZM158.871 8.14713C157.609 8.14713 156.183 10.4239 154.592 14.9776C153.001 19.5312 151.602 25.182 150.395 31.9302C149.188 38.6783 148.529 45.1521 148.42 51.3516C152.315 44.9327 155.415 38.5137 157.719 32.0948C160.023 25.621 161.175 19.7232 161.175 14.4015C161.175 10.2319 160.407 8.14713 158.871 8.14713Z" fill="#E34D11"/>
<path d="M109.27 77.7681C105.869 77.7681 103.153 76.5337 101.123 74.0649C99.0931 71.596 98.0781 68.3591 98.0781 64.3541C98.0781 59.9651 99.0931 55.823 101.123 51.9277C103.153 47.9776 105.841 44.823 109.188 42.4639C112.589 40.0499 116.183 38.8429 119.968 38.8429C121.175 38.8429 121.971 39.0898 122.355 39.5836C122.794 40.0225 123.15 40.8454 123.425 42.0524C124.577 41.8329 125.784 41.7232 127.046 41.7232C129.734 41.7232 131.078 42.6833 131.078 44.6035C131.078 45.7556 130.667 48.4988 129.844 52.8329C128.582 59.1422 127.951 63.5312 127.951 66C127.951 66.823 128.143 67.4813 128.527 67.9751C128.966 68.4688 129.515 68.7157 130.173 68.7157C131.215 68.7157 132.477 68.0574 133.958 66.7407C135.44 65.3691 137.442 63.1746 139.966 60.1571C140.624 59.389 141.365 59.005 142.188 59.005C142.901 59.005 143.45 59.3342 143.834 59.9925C144.273 60.6509 144.492 61.5561 144.492 62.7083C144.492 64.9028 143.971 66.6035 142.929 67.8105C140.679 70.6085 138.293 72.9676 135.769 74.8878C133.245 76.808 130.804 77.7681 128.445 77.7681C126.634 77.7681 124.961 77.1646 123.425 75.9576C121.943 74.6958 120.819 72.995 120.051 70.8554C117.198 75.4639 113.604 77.7681 109.27 77.7681ZM112.233 69.4564C113.44 69.4564 114.592 68.7432 115.689 67.3167C116.786 65.8903 117.582 63.9975 118.076 61.6384L121.121 46.4963C118.816 46.5511 116.677 47.4289 114.702 49.1297C112.781 50.7756 111.245 52.9701 110.093 55.7132C108.941 58.4564 108.365 61.3641 108.365 64.4364C108.365 66.1372 108.694 67.399 109.352 68.222C110.066 69.0449 111.026 69.4564 112.233 69.4564Z" fill="#E34D11"/>
<path d="M85.372 77.7681C79.9955 77.7681 75.7985 76.2594 72.781 73.2419C69.8184 70.1696 68.3371 66.1372 68.3371 61.1447C68.3371 56.7008 69.2149 52.8055 70.9706 49.4589C72.7262 46.1122 75.003 43.5337 77.801 41.7232C80.599 39.9127 83.5341 39.0075 86.6065 39.0075C89.6239 39.0075 91.9556 39.9127 93.6015 41.7232C95.3022 43.4788 96.1526 45.7556 96.1526 48.5536C96.1526 50.8579 95.6314 52.8055 94.589 54.3965C93.6015 55.9876 92.2848 56.7831 90.6389 56.7831C89.5965 56.7831 88.7461 56.5362 88.0878 56.0424C87.4843 55.5487 87.1825 54.8629 87.1825 53.9851C87.1825 53.601 87.2374 53.1621 87.3471 52.6684C87.4568 52.1746 87.5391 51.818 87.594 51.5985C87.8683 50.7756 88.0055 50.0075 88.0055 49.2943C88.0055 48.5811 87.8134 48.0324 87.4294 47.6484C87.1002 47.2644 86.6065 47.0723 85.9481 47.0723C84.6863 47.0723 83.5067 47.6484 82.4095 48.8005C81.3122 49.8978 80.4344 51.4065 79.776 53.3267C79.1177 55.2469 78.7885 57.3591 78.7885 59.6634C78.7885 66.0275 81.5591 69.2095 87.1002 69.2095C89.3496 69.2095 91.7636 68.4689 94.3421 66.9876C96.9755 65.4514 99.5541 63.1746 102.078 60.1571C102.736 59.3891 103.477 59.005 104.3 59.005C105.013 59.005 105.562 59.3342 105.946 59.9925C106.385 60.6509 106.604 61.5561 106.604 62.7083C106.604 64.793 106.083 66.4938 105.04 67.8105C102.462 70.9925 99.3621 73.4614 95.7411 75.217C92.175 76.9177 88.7187 77.7681 85.372 77.7681Z" fill="#E34D11"/>
<path d="M74.0502 59.005C74.7634 59.005 75.312 59.3342 75.696 59.9925C76.1349 60.6509 76.3544 61.5561 76.3544 62.7083C76.3544 64.9028 75.8332 66.6035 74.7908 67.8105C72.7609 70.2793 69.8806 72.5561 66.1499 74.6409C62.4741 76.7257 58.524 77.7681 54.2995 77.7681C48.5389 77.7681 44.0676 76.2045 40.8856 73.0773C37.7035 69.9501 36.1125 65.6709 36.1125 60.2394C36.1125 56.4539 36.908 52.9427 38.499 49.7058C40.09 46.414 42.2846 43.808 45.0826 41.8878C47.9354 39.9676 51.1449 39.0075 54.711 39.0075C57.893 39.0075 60.4442 39.9676 62.3644 41.8878C64.2846 43.7531 65.2447 46.3043 65.2447 49.5412C65.2447 53.3267 63.8731 56.591 61.1299 59.3342C58.4417 62.0225 53.8606 64.1621 47.3868 65.7531C48.7584 68.2768 51.3644 69.5387 55.2048 69.5387C57.6736 69.5387 60.4716 68.6883 63.5988 66.9876C66.7808 65.2319 69.524 62.9551 71.8282 60.1571C72.4866 59.3891 73.2272 59.005 74.0502 59.005ZM53.312 47.0723C51.2821 47.0723 49.5539 48.2519 48.1275 50.611C46.7559 52.9701 46.0701 55.823 46.0701 59.1696V59.3342C49.307 58.5661 51.8581 57.414 53.7235 55.8778C55.5888 54.3417 56.5215 52.5586 56.5215 50.5287C56.5215 49.4863 56.2197 48.6634 55.6162 48.0599C55.0676 47.4015 54.2995 47.0723 53.312 47.0723Z" fill="#E34D11"/>
<path d="M5.73946 77.7681C3.65467 77.7681 2.17338 76.6708 1.29557 74.4763C0.472629 72.2818 0.0611572 68.7706 0.0611572 63.9427C0.0611572 56.8105 1.07612 50.0349 3.10605 43.616C3.59981 42.025 4.39532 40.8728 5.49258 40.1596C6.6447 39.3915 8.23572 39.0075 10.2656 39.0075C11.3629 39.0075 12.131 39.1447 12.5699 39.419C13.0088 39.6933 13.2282 40.2145 13.2282 40.9826C13.2282 41.8604 12.8168 43.8354 11.9938 46.9078C11.4452 49.1023 11.0063 51.0225 10.6771 52.6684C10.3479 54.3142 10.0736 56.3442 9.85418 58.7581C11.6647 54.0399 13.6946 50.1995 15.944 47.2369C18.1933 44.2743 20.3878 42.1621 22.5275 40.9003C24.722 39.6384 26.7245 39.0075 28.535 39.0075C32.1011 39.0075 33.8841 40.7905 33.8841 44.3566C33.8841 45.0698 33.6372 46.798 33.1435 49.5412C32.7046 51.7357 32.4851 53.1073 32.4851 53.6559C32.4851 55.5761 33.1709 56.5362 34.5425 56.5362C36.0786 56.5362 38.0537 55.3292 40.4676 52.9152C41.1809 52.202 41.9215 51.8454 42.6896 51.8454C43.4028 51.8454 43.9514 52.1746 44.3355 52.8329C44.7744 53.4364 44.9938 54.2594 44.9938 55.3018C44.9938 57.3317 44.4452 58.9227 43.3479 60.0748C41.8118 61.6659 40.0013 63.0374 37.9165 64.1896C35.8866 65.2868 33.7195 65.8354 31.4153 65.8354C28.5075 65.8354 26.2856 65.0948 24.7494 63.6135C23.2681 62.1322 22.5275 60.1297 22.5275 57.606C22.5275 56.7831 22.6098 55.9601 22.7744 55.1372C22.8841 54.0399 22.939 53.2993 22.939 52.9152C22.939 52.0374 22.6372 51.5985 22.0337 51.5985C21.2108 51.5985 20.1135 52.5312 18.742 54.3965C17.4252 56.207 16.1085 58.621 14.7918 61.6384C13.4751 64.6559 12.4053 67.8379 11.5824 71.1846C10.9789 73.7631 10.2656 75.5187 9.44271 76.4514C8.67463 77.3292 7.44021 77.7681 5.73946 77.7681Z" fill="#E34D11"/>
</svg>
