<svg width="89" height="78" viewBox="0 0 89 78" fill="none" xmlns="http://www.w3.org/2000/svg">
<path d="M84.9324 37.9903L68.1406 31.6883V12.7998C68.1406 10.1885 66.524 7.85571 64.0731 6.93304L46.6902 0.404754C45.2822 -0.134918 43.7178 -0.134918 42.2924 0.404754L24.9096 6.93304C22.4586 7.85571 20.842 10.1885 20.842 12.7998V31.6883L4.0502 37.9903C1.6166 38.913 0 41.2457 0 43.857V63.0241C0 65.3917 1.33848 67.5678 3.45918 68.6297L20.842 77.3341C22.5977 78.222 24.6836 78.222 26.4393 77.3341L44.5 68.2815L62.5607 77.3341C64.3164 78.222 66.4023 78.222 68.158 77.3341L85.5408 68.6297C87.6615 67.5678 89 65.3917 89 63.0241V43.857C89 41.2457 87.3834 38.913 84.9324 37.9903ZM62.2305 31.8276L47.4551 37.381V25.5082L62.2305 19.067V31.8276ZM26.7695 12.5561L44.5 5.90593L62.2305 12.5561V12.6605L44.5 19.8678L26.7695 12.6605V12.5561ZM41.3711 63.233L26.5957 70.6317V56.8614L41.3711 50.1068V63.233ZM41.3711 43.7352L23.6406 50.9424L5.91016 43.7352V43.6307L23.6406 36.9806L41.3711 43.6307V43.7352ZM83.0898 63.233L68.3145 70.6317V56.8614L83.0898 50.1068V63.233ZM83.0898 43.7352L65.3594 50.9424L47.6289 43.7352V43.6307L65.3594 36.9806L83.0898 43.6307V43.7352Z" fill="white"/>
</svg>
