<svg width="150" height="150" viewBox="0 0 150 150" fill="none" xmlns="http://www.w3.org/2000/svg">
<rect width="150" height="150" rx="75" fill="#E34D11"/>
<path d="M30.9231 140C25.0769 140 20.9231 136.914 18.4615 130.743C16.1538 124.572 15 114.698 15 101.121C15 81.0644 17.8462 62.0106 23.5385 43.9596C24.9231 39.4855 27.1538 36.2456 30.2308 34.2399C33.4615 32.08 37.9231 31 43.6154 31C46.6923 31 48.8462 31.3857 50.0769 32.1571C51.3077 32.9285 51.9231 34.3942 51.9231 36.5541C51.9231 39.0226 50.7692 44.5768 48.4615 53.2166C46.9231 59.3878 45.6923 64.7877 44.7692 69.4161C43.8462 74.0446 43.0769 79.753 42.4615 86.5414C47.5385 73.2732 53.2308 62.4735 59.5385 54.1423C65.8462 45.811 72 39.8712 78 36.3227C84.1538 32.7742 89.7692 31 94.8462 31C104.846 31 109.846 36.0141 109.846 46.0425C109.846 48.0481 109.154 52.908 107.769 60.6221C106.538 66.7933 105.923 70.6504 105.923 72.1932C105.923 77.5931 107.846 80.293 111.692 80.293C116 80.293 121.538 76.8988 128.308 70.1104C130.308 68.1047 132.385 67.1019 134.538 67.1019C136.538 67.1019 138.077 68.0276 139.154 69.879C140.385 71.5761 141 73.8903 141 76.8216C141 82.5301 139.462 87.0042 136.385 90.2441C132.077 94.7183 127 98.5754 121.154 101.815C115.462 104.901 109.385 106.444 102.923 106.444C94.7692 106.444 88.5385 104.361 84.2308 100.195C80.0769 96.0297 78 90.3984 78 83.3015C78 80.9873 78.2308 78.673 78.6923 76.3588C79 73.2732 79.1539 71.1904 79.1539 70.1104C79.1539 67.6419 78.3077 66.4076 76.6154 66.4076C74.3077 66.4076 71.2308 69.0304 67.3846 74.276C63.6923 79.3673 60 86.1557 56.3077 94.6412C52.6154 103.127 49.6154 112.075 47.3077 121.486C45.6154 128.737 43.6154 133.674 41.3077 136.297C39.1538 138.766 35.6923 140 30.9231 140Z" fill="white"/>
</svg>
